<svg width="39" height="9" viewBox="0 0 39 9" fill="currentColor" xmlns="http://www.w3.org/2000/svg">
<path d="M-2.08616e-07 0.192H1.92V0.384C1.92 0.564 1.872 0.744 1.788 0.912C1.692 1.116 1.536 1.332 1.692 1.404C1.836 1.476 1.92 1.308 1.968 1.224C2.364 0.492 3 -4.76837e-07 3.96 -4.76837e-07C5.7 -4.76837e-07 6.72 1.488 6.72 3.36C6.72 5.232 5.7 6.72 3.96 6.72C3.012 6.72 2.364 6.24 1.968 5.484C1.932 5.412 1.872 5.28 1.752 5.316C1.572 5.376 1.68 5.58 1.776 5.784C1.872 5.952 1.92 6.12 1.92 6.3V8.832H-2.08616e-07V0.192ZM3.408 5.088C4.368 5.088 4.8 4.284 4.8 3.36C4.8 2.436 4.368 1.632 3.408 1.632C2.496 1.632 1.92 2.436 1.92 3.36C1.92 4.284 2.496 5.088 3.408 5.088ZM9.36253 1.38C9.73453 0.54 10.0945 0.0959997 11.6185 0.0959997V1.944C9.87853 1.824 9.31453 2.46 9.31453 4.068V6.528H7.39453V0.192H9.31453V0.48C9.31453 0.696 9.24253 0.912 9.14653 1.104C9.05053 1.296 8.97853 1.512 9.15853 1.548C9.26653 1.572 9.32653 1.464 9.36253 1.38ZM15.0229 -4.76837e-07C17.1109 -4.76837e-07 18.3829 1.512 18.3829 3.36C18.3829 5.208 17.1109 6.72 15.0229 6.72C12.9349 6.72 11.6629 5.208 11.6629 3.36C11.6629 1.512 12.9349 -4.76837e-07 15.0229 -4.76837e-07ZM15.0229 5.088C15.9709 5.088 16.4629 4.296 16.4629 3.36C16.4629 2.424 15.9709 1.632 15.0229 1.632C14.0749 1.632 13.5829 2.424 13.5829 3.36C13.5829 4.296 14.0749 5.088 15.0229 5.088ZM20.6529 6.636L18.1929 0.192H20.2329L21.3849 3.948C21.4569 4.188 21.4809 4.404 21.4809 4.62C21.4809 4.74 21.5049 4.872 21.6729 4.872C21.8409 4.872 21.8529 4.74 21.8649 4.62C21.8889 4.404 21.9009 4.188 21.9729 3.948L23.0649 0.192H25.1049L22.4169 7.26C21.9849 8.388 21.3849 8.832 20.2809 8.832H18.7449V7.296H19.2729C20.1849 7.296 20.3649 7.344 20.5809 6.816L20.6529 6.636ZM31.4448 3.168C31.4448 3.348 31.4328 3.66 31.4088 3.84H26.8128C26.9448 4.644 27.4848 5.184 28.2888 5.184C28.8888 5.184 29.2608 4.884 29.4168 4.416H31.3248C31.0728 5.616 30.0888 6.72 28.3008 6.72C26.0928 6.72 24.9168 5.232 24.9168 3.36C24.9168 1.392 26.1408 -4.76837e-07 28.2648 -4.76837e-07C29.8728 -4.76837e-07 31.4448 0.984 31.4448 3.168ZM28.3008 1.488C27.3888 1.488 27.0048 2.004 26.8608 2.688H29.5608C29.4888 1.92 29.0088 1.488 28.3008 1.488ZM33.3184 6.528H31.1584L33.4144 3.216L31.3504 0.192H33.5104L34.3744 1.764C34.4704 1.932 34.5184 2.124 34.5184 2.268C34.5184 2.388 34.5544 2.52 34.7104 2.52C34.8664 2.52 34.9024 2.388 34.9024 2.268C34.9024 2.124 34.9504 1.932 35.0464 1.764L35.9104 0.192H38.0704L36.0064 3.216L38.2624 6.528H36.1024L35.0464 4.656C34.9384 4.476 34.9144 4.296 34.9024 4.152C34.8904 4.032 34.8784 3.9 34.7104 3.9C34.5424 3.9 34.5304 4.032 34.5184 4.152C34.5064 4.296 34.4824 4.476 34.3744 4.656L33.3184 6.528Z" fill="black"/>
</svg>
